<svg xmlns="http://www.w3.org/2000/svg" viewBox="0 0 165 40" height="32">
  <g transform="translate(20,20)">
    <circle r="16" fill="none" stroke="#B8883A" stroke-width="1.2"/>
    <circle r="13" fill="none" stroke="#B8883A" stroke-width="0.7"/>
    <path d="M0,-12 L3,-3.5 L0,0 L-3,-3.5Z" fill="#4A5A68" transform="rotate(45)"/>
    <path d="M0,-12 L3,-3.5 L0,0 L-3,-3.5Z" fill="#4A5A68" transform="rotate(135)"/>
    <path d="M0,-12 L3,-3.5 L0,0 L-3,-3.5Z" fill="#4A5A68" transform="rotate(225)"/>
    <path d="M0,-12 L3,-3.5 L0,0 L-3,-3.5Z" fill="#4A5A68" transform="rotate(315)"/>
    <path d="M0,-10 L1.8,-3 L0,0 L-1.8,-3Z" fill="#7A8E9C" transform="rotate(90)"/>
    <path d="M0,-11 L2.5,-3 L0,0 L-2.5,-3Z" fill="#f0a040" transform="rotate(270)"/>
    <path d="M0,-9 L1.8,-2.5 L0,0 L-1.8,-2.5Z" fill="#7A8E9C" transform="rotate(180)"/>
    <path d="M0,-12 L2.5,-3.5 L0,0 L-2.5,-3.5Z" fill="#f0a040"/>
    <circle r="2.5" fill="#f0a040"/>
  </g>
  <text x="42" y="26" font-family="Inter, sans-serif" font-size="24" font-weight="800">
    <tspan fill="#F0F4F8">Nav</tspan><tspan fill="#f0a040"> It</tspan>
  </text>
</svg>
